<mxfile host="app.diagrams.net" modified="2023-07-07T09:10:23.580Z" agent="Mozilla/5.0 (Windows NT 10.0; Win64; x64) AppleWebKit/537.36 (KHTML, like Gecko) Chrome/114.0.0.0 Safari/537.36" etag="X1cu0TXXW7uZDaTJg3zp" version="21.6.1" type="device">
  <diagram name="Page-1" id="_vUZPAlZEiB5AV3Dw5Fj">
    <mxGraphModel dx="1050" dy="581" grid="0" gridSize="10" guides="1" tooltips="1" connect="1" arrows="1" fold="1" page="1" pageScale="1" pageWidth="850" pageHeight="1100" math="0" shadow="0">
      <root>
        <mxCell id="0" />
        <mxCell id="1" parent="0" />
        <mxCell id="699oIrvPUedQxloaIlU1-6" value="Authors" style="swimlane;childLayout=stackLayout;horizontal=1;startSize=50;horizontalStack=0;rounded=1;fontSize=14;fontStyle=0;strokeWidth=2;resizeParent=0;resizeLast=1;shadow=0;dashed=0;align=center;arcSize=4;whiteSpace=wrap;html=1;" vertex="1" parent="1">
          <mxGeometry x="86" y="62" width="160" height="170" as="geometry" />
        </mxCell>
        <mxCell id="699oIrvPUedQxloaIlU1-7" value="- id - PK&lt;br&gt;- name&lt;br&gt;- emailId&lt;br&gt;- password&lt;br&gt;- bio&lt;br&gt;- avatarUrl&lt;br&gt;- registration" style="align=left;strokeColor=none;fillColor=none;spacingLeft=4;fontSize=12;verticalAlign=top;resizable=0;rotatable=0;part=1;html=1;" vertex="1" parent="699oIrvPUedQxloaIlU1-6">
          <mxGeometry y="50" width="160" height="120" as="geometry" />
        </mxCell>
        <mxCell id="699oIrvPUedQxloaIlU1-34" style="edgeStyle=orthogonalEdgeStyle;rounded=0;orthogonalLoop=1;jettySize=auto;html=1;entryX=1.005;entryY=0.115;entryDx=0;entryDy=0;entryPerimeter=0;" edge="1" parent="1" source="699oIrvPUedQxloaIlU1-9" target="699oIrvPUedQxloaIlU1-7">
          <mxGeometry relative="1" as="geometry" />
        </mxCell>
        <mxCell id="699oIrvPUedQxloaIlU1-9" value="Comments" style="swimlane;childLayout=stackLayout;horizontal=1;startSize=50;horizontalStack=0;rounded=1;fontSize=14;fontStyle=0;strokeWidth=2;resizeParent=0;resizeLast=1;shadow=0;dashed=0;align=center;arcSize=4;whiteSpace=wrap;html=1;" vertex="1" parent="1">
          <mxGeometry x="612" y="56" width="160" height="139" as="geometry" />
        </mxCell>
        <mxCell id="699oIrvPUedQxloaIlU1-10" value="- id - PK&lt;br&gt;- comment&lt;br&gt;- articleId - FK&lt;br&gt;- authorId - FK&lt;br&gt;- date" style="align=left;strokeColor=none;fillColor=none;spacingLeft=4;fontSize=12;verticalAlign=top;resizable=0;rotatable=0;part=1;html=1;" vertex="1" parent="699oIrvPUedQxloaIlU1-9">
          <mxGeometry y="50" width="160" height="89" as="geometry" />
        </mxCell>
        <mxCell id="699oIrvPUedQxloaIlU1-37" style="edgeStyle=orthogonalEdgeStyle;rounded=0;orthogonalLoop=1;jettySize=auto;html=1;exitX=0.25;exitY=0;exitDx=0;exitDy=0;entryX=1;entryY=0.25;entryDx=0;entryDy=0;" edge="1" parent="1" source="699oIrvPUedQxloaIlU1-11" target="699oIrvPUedQxloaIlU1-7">
          <mxGeometry relative="1" as="geometry" />
        </mxCell>
        <mxCell id="699oIrvPUedQxloaIlU1-11" value="Articles" style="swimlane;childLayout=stackLayout;horizontal=1;startSize=50;horizontalStack=0;rounded=1;fontSize=14;fontStyle=0;strokeWidth=2;resizeParent=0;resizeLast=1;shadow=0;dashed=0;align=center;arcSize=4;whiteSpace=wrap;html=1;" vertex="1" parent="1">
          <mxGeometry x="354" y="353" width="160" height="169" as="geometry" />
        </mxCell>
        <mxCell id="699oIrvPUedQxloaIlU1-12" value="- id - PK&lt;br&gt;- title&lt;br&gt;- subtitle&lt;br&gt;- content&lt;br&gt;- publishDate&lt;br&gt;- ratings&lt;br&gt;- authodId - FK" style="align=left;strokeColor=none;fillColor=none;spacingLeft=4;fontSize=12;verticalAlign=top;resizable=0;rotatable=0;part=1;html=1;" vertex="1" parent="699oIrvPUedQxloaIlU1-11">
          <mxGeometry y="50" width="160" height="119" as="geometry" />
        </mxCell>
        <mxCell id="699oIrvPUedQxloaIlU1-13" value="Tags" style="swimlane;childLayout=stackLayout;horizontal=1;startSize=50;horizontalStack=0;rounded=1;fontSize=14;fontStyle=0;strokeWidth=2;resizeParent=0;resizeLast=1;shadow=0;dashed=0;align=center;arcSize=4;whiteSpace=wrap;html=1;" vertex="1" parent="1">
          <mxGeometry x="103" y="305" width="160" height="95" as="geometry" />
        </mxCell>
        <mxCell id="699oIrvPUedQxloaIlU1-14" value="- id - PK&lt;br&gt;- tagName" style="align=left;strokeColor=none;fillColor=none;spacingLeft=4;fontSize=12;verticalAlign=top;resizable=0;rotatable=0;part=1;html=1;" vertex="1" parent="699oIrvPUedQxloaIlU1-13">
          <mxGeometry y="50" width="160" height="45" as="geometry" />
        </mxCell>
        <mxCell id="699oIrvPUedQxloaIlU1-30" style="edgeStyle=orthogonalEdgeStyle;rounded=0;orthogonalLoop=1;jettySize=auto;html=1;exitX=0.5;exitY=0;exitDx=0;exitDy=0;entryX=0.5;entryY=1;entryDx=0;entryDy=0;" edge="1" parent="1" source="699oIrvPUedQxloaIlU1-15" target="699oIrvPUedQxloaIlU1-14">
          <mxGeometry relative="1" as="geometry" />
        </mxCell>
        <mxCell id="699oIrvPUedQxloaIlU1-15" value="ArticleTags" style="swimlane;childLayout=stackLayout;horizontal=1;startSize=50;horizontalStack=0;rounded=1;fontSize=14;fontStyle=0;strokeWidth=2;resizeParent=0;resizeLast=1;shadow=0;dashed=0;align=center;arcSize=4;whiteSpace=wrap;html=1;" vertex="1" parent="1">
          <mxGeometry x="103" y="436" width="160" height="120" as="geometry" />
        </mxCell>
        <mxCell id="699oIrvPUedQxloaIlU1-16" value="- id - PK&lt;br&gt;- tagId&lt;br&gt;- articleId" style="align=left;strokeColor=none;fillColor=none;spacingLeft=4;fontSize=12;verticalAlign=top;resizable=0;rotatable=0;part=1;html=1;" vertex="1" parent="699oIrvPUedQxloaIlU1-15">
          <mxGeometry y="50" width="160" height="70" as="geometry" />
        </mxCell>
        <mxCell id="699oIrvPUedQxloaIlU1-22" value="Sponsors" style="swimlane;childLayout=stackLayout;horizontal=1;startSize=50;horizontalStack=0;rounded=1;fontSize=14;fontStyle=0;strokeWidth=2;resizeParent=0;resizeLast=1;shadow=0;dashed=0;align=center;arcSize=4;whiteSpace=wrap;html=1;" vertex="1" parent="1">
          <mxGeometry x="600" y="298" width="160" height="95" as="geometry" />
        </mxCell>
        <mxCell id="699oIrvPUedQxloaIlU1-23" value="- id - PK&lt;br&gt;- sponsorName" style="align=left;strokeColor=none;fillColor=none;spacingLeft=4;fontSize=12;verticalAlign=top;resizable=0;rotatable=0;part=1;html=1;" vertex="1" parent="699oIrvPUedQxloaIlU1-22">
          <mxGeometry y="50" width="160" height="45" as="geometry" />
        </mxCell>
        <mxCell id="699oIrvPUedQxloaIlU1-32" style="edgeStyle=orthogonalEdgeStyle;rounded=0;orthogonalLoop=1;jettySize=auto;html=1;exitX=0.5;exitY=0;exitDx=0;exitDy=0;entryX=0.5;entryY=1;entryDx=0;entryDy=0;" edge="1" parent="1" source="699oIrvPUedQxloaIlU1-24" target="699oIrvPUedQxloaIlU1-23">
          <mxGeometry relative="1" as="geometry" />
        </mxCell>
        <mxCell id="699oIrvPUedQxloaIlU1-24" value="ArticleSponsors" style="swimlane;childLayout=stackLayout;horizontal=1;startSize=50;horizontalStack=0;rounded=1;fontSize=14;fontStyle=0;strokeWidth=2;resizeParent=0;resizeLast=1;shadow=0;dashed=0;align=center;arcSize=4;whiteSpace=wrap;html=1;" vertex="1" parent="1">
          <mxGeometry x="600" y="436" width="160" height="120" as="geometry" />
        </mxCell>
        <mxCell id="699oIrvPUedQxloaIlU1-25" value="- id - PK&lt;br&gt;- sponsorId&lt;br&gt;- articleId" style="align=left;strokeColor=none;fillColor=none;spacingLeft=4;fontSize=12;verticalAlign=top;resizable=0;rotatable=0;part=1;html=1;" vertex="1" parent="699oIrvPUedQxloaIlU1-24">
          <mxGeometry y="50" width="160" height="70" as="geometry" />
        </mxCell>
        <mxCell id="699oIrvPUedQxloaIlU1-28" style="edgeStyle=orthogonalEdgeStyle;rounded=0;orthogonalLoop=1;jettySize=auto;html=1;exitX=0.5;exitY=1;exitDx=0;exitDy=0;" edge="1" parent="1" source="699oIrvPUedQxloaIlU1-10">
          <mxGeometry relative="1" as="geometry">
            <mxPoint x="430" y="350" as="targetPoint" />
          </mxGeometry>
        </mxCell>
        <mxCell id="699oIrvPUedQxloaIlU1-31" style="edgeStyle=orthogonalEdgeStyle;rounded=0;orthogonalLoop=1;jettySize=auto;html=1;exitX=1;exitY=0.5;exitDx=0;exitDy=0;entryX=-0.035;entryY=0.154;entryDx=0;entryDy=0;entryPerimeter=0;" edge="1" parent="1" source="699oIrvPUedQxloaIlU1-16" target="699oIrvPUedQxloaIlU1-12">
          <mxGeometry relative="1" as="geometry" />
        </mxCell>
        <mxCell id="699oIrvPUedQxloaIlU1-33" style="edgeStyle=orthogonalEdgeStyle;rounded=0;orthogonalLoop=1;jettySize=auto;html=1;exitX=0;exitY=0.5;exitDx=0;exitDy=0;entryX=1.025;entryY=0.107;entryDx=0;entryDy=0;entryPerimeter=0;" edge="1" parent="1" source="699oIrvPUedQxloaIlU1-25" target="699oIrvPUedQxloaIlU1-12">
          <mxGeometry relative="1" as="geometry" />
        </mxCell>
      </root>
    </mxGraphModel>
  </diagram>
</mxfile>
